<svg width="15" height="15" viewBox="0 0 15 15" fill="none" xmlns="http://www.w3.org/2000/svg">
<path d="M14.0969 8.53874L12.9094 4.26624C12.5613 3.01457 11.8048 1.91517 10.7602 1.14278C9.71558 0.370398 8.44275 -0.0306439 7.14404 0.0034062C5.84532 0.0374563 4.59525 0.504644 3.59254 1.33071C2.58982 2.15677 1.892 3.2943 1.61 4.56249L0.690621 8.69686C0.589068 9.1537 0.591416 9.62751 0.697492 10.0833C0.803567 10.5391 1.01066 10.9653 1.30349 11.3303C1.59631 11.6954 1.96738 11.99 2.38932 12.1925C2.81125 12.3949 3.27326 12.5 3.74125 12.5H4.4375C4.58094 13.2064 4.9642 13.8415 5.52234 14.2977C6.08047 14.7539 6.77915 15.0031 7.5 15.0031C8.22085 15.0031 8.91953 14.7539 9.47766 14.2977C10.0358 13.8415 10.4191 13.2064 10.5625 12.5H11.0862C11.568 12.5 12.0432 12.3887 12.4748 12.1746C12.9064 11.9606 13.2827 11.6497 13.5743 11.2662C13.8658 10.8826 14.0647 10.4369 14.1555 9.96376C14.2463 9.49063 14.2264 9.00293 14.0975 8.53874H14.0969ZM7.5 13.75C7.11358 13.7484 6.7371 13.6274 6.42206 13.4037C6.10702 13.1799 5.8688 12.8643 5.74 12.5H9.26C9.1312 12.8643 8.89298 13.1799 8.57793 13.4037C8.26289 13.6274 7.88641 13.7484 7.5 13.75ZM12.5787 10.5094C12.4046 10.7404 12.1789 10.9276 11.9198 11.0562C11.6606 11.1848 11.3749 11.2511 11.0856 11.25H3.74125C3.46049 11.2499 3.18332 11.1868 2.93021 11.0654C2.6771 10.9439 2.4545 10.7671 2.27885 10.5481C2.1032 10.329 1.97897 10.0733 1.91535 9.79989C1.85172 9.52644 1.85032 9.24218 1.91125 8.96811L2.83 4.83311C3.05147 3.83699 3.59956 2.94349 4.38716 2.29465C5.17475 1.6458 6.15664 1.27885 7.17673 1.25212C8.19683 1.2254 9.19658 1.54044 10.0171 2.14716C10.8375 2.75388 11.4317 3.61746 11.705 4.60061L12.8925 8.87311C12.971 9.15147 12.9835 9.44429 12.929 9.72832C12.8745 10.0124 12.7546 10.2798 12.5787 10.5094Z" fill="black"/>
</svg>
